<svg width="25" height="30" viewBox="0 0 25 30" version="1.1" xmlns="http://www.w3.org/2000/svg" xmlns:xlink="http://www.w3.org/1999/xlink">
<title>noun_1162445_cc</title>
<desc>Created using Figma</desc>
<g id="Canvas" transform="translate(3539 -3617)">
<g id="noun_1162445_cc">
<g id="Group">
<g id="Vector">
<use xlink:href="#path0_fill" transform="translate(-3539 3617)"/>
</g>
</g>
</g>
</g>
<defs>
<path id="path0_fill" d="M 8.65553 0.00153513C 8.60396 0.0123545 8.55551 0.0347187 8.51382 0.0669421L 0.141726 6.34569C 0.0974079 6.37839 0.0614627 6.42111 0.0368312 6.47037C 0.0121998 6.51963 -0.000417861 6.57403 1.05561e-05 6.6291L 1.05561e-05 24.0701C 2.43206e-05 24.1626 0.0367818 24.2513 0.102199 24.3167C 0.167616 24.3821 0.256336 24.4189 0.348848 24.4189L 10.6068 24.4189C 11.2548 27.6017 14.0703 30 17.4419 30C 21.2909 30 24.4186 26.8724 24.4186 23.0236C 24.4186 19.1748 21.2909 16.0472 17.4419 16.0472L 17.4419 0.350351C 17.4419 0.257841 17.4051 0.169127 17.3397 0.103712C 17.2743 0.0382978 17.1855 0.00154438 17.093 0.00153513L 8.72094 0.00153513C 8.69918 -0.000513037 8.67729 -0.000513037 8.65553 0.00153513ZM 9.06978 0.699167L 16.7442 0.699167L 16.7442 16.0799C 14.4348 16.3115 12.4488 17.6718 11.359 19.6008C 11.3017 19.5597 11.2333 19.5369 11.1628 19.5354L 3.83722 19.5354C 3.81546 19.5334 3.79357 19.5334 3.77181 19.5354C 3.726 19.5397 3.68149 19.553 3.64081 19.5745C 3.60013 19.596 3.56408 19.6253 3.53473 19.6607C 3.47544 19.7322 3.447 19.8244 3.45568 19.9169C 3.46435 20.0094 3.50942 20.0947 3.58098 20.154C 3.65253 20.2133 3.7447 20.2417 3.83722 20.233L 11.0429 20.233C 10.6685 21.0881 10.4651 22.032 10.4651 23.0236C 10.4651 23.2604 10.4747 23.4905 10.4978 23.7213L 0.697685 23.7213L 0.697685 6.97792C 0.727097 6.97798 0.756399 6.97432 0.784894 6.96704L 11.25 4.17649C 11.3206 4.16065 11.3845 4.12328 11.4329 4.06954C 11.4812 4.0158 11.5117 3.94836 11.5201 3.87654C 11.5285 3.80471 11.5143 3.73206 11.4796 3.66863C 11.4449 3.60519 11.3913 3.55412 11.3263 3.52246C 10.6314 3.14905 10.044 2.9948 9.68024 2.68309C 9.31646 2.37139 9.06978 1.90235 9.06978 0.699167ZM 8.383 1.0371C 8.43464 2.137 8.73968 2.79269 9.22239 3.20631C 9.50686 3.45006 9.82534 3.60816 10.149 3.75134L 1.7878 5.97507L 8.383 1.0371ZM 3.77181 8.3732C 3.726 8.37749 3.68149 8.39077 3.64081 8.41227C 3.60013 8.43377 3.56408 8.46305 3.53473 8.49848C 3.47544 8.57003 3.447 8.66221 3.45568 8.75472C 3.46435 8.84723 3.50942 8.93251 3.58098 8.9918C 3.65253 9.05108 3.7447 9.0795 3.83722 9.07083L 13.6047 9.07083C 13.6509 9.07148 13.6968 9.06295 13.7397 9.04571C 13.7826 9.02847 13.8216 9.00288 13.8545 8.97042C 13.8874 8.93797 13.9136 8.89928 13.9314 8.85664C 13.9492 8.814 13.9584 8.76824 13.9584 8.72202C 13.9584 8.67579 13.9492 8.63003 13.9314 8.58739C 13.9136 8.54475 13.8874 8.50607 13.8545 8.47361C 13.8216 8.44115 13.7826 8.41556 13.7397 8.39832C 13.6968 8.38109 13.6509 8.37255 13.6047 8.3732L 3.83722 8.3732C 3.81546 8.37115 3.79357 8.37115 3.77181 8.3732ZM 3.77181 13.9543C 3.7258 13.9583 3.68103 13.9714 3.6401 13.9928C 3.59916 14.0142 3.56286 14.0435 3.53328 14.079C 3.5037 14.1145 3.48143 14.1554 3.46774 14.1995C 3.45406 14.2436 3.44924 14.29 3.45355 14.336C 3.45786 14.382 3.47122 14.4267 3.49287 14.4675C 3.51451 14.5083 3.54401 14.5444 3.57967 14.5738C 3.61533 14.6031 3.65644 14.6252 3.70064 14.6386C 3.74484 14.652 3.79126 14.6565 3.83722 14.6519L 13.6047 14.6519C 13.6509 14.6526 13.6969 14.6442 13.7398 14.627C 13.7828 14.6097 13.8218 14.5841 13.8548 14.5517C 13.8878 14.5192 13.914 14.4805 13.9318 14.4379C 13.9497 14.3952 13.9589 14.3494 13.9589 14.3031C 13.9589 14.2568 13.9497 14.2111 13.9318 14.1684C 13.914 14.1257 13.8878 14.087 13.8548 14.0546C 13.8218 14.0221 13.7828 13.9965 13.7398 13.9793C 13.6969 13.9621 13.6509 13.9536 13.6047 13.9543L 3.83722 13.9543C 3.81546 13.9523 3.79357 13.9523 3.77181 13.9543ZM 17.4419 16.7448C 20.9138 16.7448 23.7209 19.5518 23.7209 23.0236C 23.7209 26.4954 20.9138 29.3024 17.4419 29.3024C 13.9699 29.3024 11.1628 26.4954 11.1628 23.0236C 11.1628 19.6547 13.8078 16.9152 17.1366 16.7558C 17.2383 16.7509 17.339 16.745 17.4419 16.745L 17.4419 16.7448ZM 17.3983 18.8269C 17.3116 18.8377 17.2321 18.8807 17.1756 18.9473C 17.1191 19.0139 17.0896 19.0993 17.093 19.1866L 17.093 19.8843C 16.0656 19.8843 15.3488 20.694 15.3488 21.6283C 15.3488 22.6093 16.2517 23.3724 17.4419 23.3724C 18.3571 23.3724 18.8372 23.8539 18.8372 24.4189C 18.8372 25.0305 18.4811 25.4653 17.7907 25.4653L 15.6977 25.4653C 15.6515 25.4647 15.6056 25.4732 15.5627 25.4904C 15.5198 25.5077 15.4807 25.5333 15.4478 25.5657C 15.4149 25.5982 15.3888 25.6369 15.3709 25.6795C 15.3531 25.7222 15.3439 25.7679 15.3439 25.8142C 15.3439 25.8604 15.3531 25.9061 15.3709 25.9488C 15.3888 25.9914 15.4149 26.0301 15.4478 26.0625C 15.4807 26.095 15.5198 26.1206 15.5627 26.1378C 15.6056 26.1551 15.6515 26.1636 15.6977 26.163L 17.093 26.163L 17.093 26.8606C 17.0924 26.9068 17.1009 26.9527 17.1182 26.9956C 17.1354 27.0385 17.161 27.0775 17.1934 27.1105C 17.2259 27.1434 17.2646 27.1695 17.3072 27.1874C 17.3499 27.2052 17.3956 27.2144 17.4419 27.2144C 17.4881 27.2144 17.5339 27.2052 17.5765 27.1874C 17.6192 27.1695 17.6578 27.1434 17.6903 27.1105C 17.7228 27.0775 17.7483 27.0385 17.7656 26.9956C 17.7828 26.9527 17.7914 26.9068 17.7907 26.8606L 17.7907 26.163C 18.8181 26.163 19.5349 25.3533 19.5349 24.4189C 19.5349 23.4379 18.6321 22.6748 17.4419 22.6748C 16.5266 22.6748 16.0465 22.1933 16.0465 21.6283C 16.0465 21.0167 16.4026 20.5819 17.093 20.5819L 19.1861 20.5819C 19.2323 20.5825 19.2782 20.574 19.3211 20.5568C 19.364 20.5395 19.403 20.5139 19.4359 20.4815C 19.4688 20.449 19.495 20.4103 19.5128 20.3677C 19.5306 20.325 19.5398 20.2793 19.5398 20.2331C 19.5398 20.1868 19.5306 20.1411 19.5128 20.0984C 19.495 20.0558 19.4688 20.0171 19.4359 19.9847C 19.403 19.9522 19.364 19.9266 19.3211 19.9094C 19.2782 19.8921 19.2323 19.8836 19.1861 19.8843L 17.7907 19.8843L 17.7907 19.1866C 17.7927 19.136 17.7836 19.0855 17.7641 19.0388C 17.7446 18.992 17.7152 18.95 17.6778 18.9158C 17.6405 18.8816 17.5961 18.8559 17.5479 18.8405C 17.4996 18.8252 17.4485 18.8205 17.3983 18.8269Z"/>
</defs>
</svg>
