<svg width="22" height="22" viewBox="0 0 22 22" version="1.1" xmlns="http://www.w3.org/2000/svg" xmlns:xlink="http://www.w3.org/1999/xlink">
<title>noun_1258738_cc</title>
<desc>Created using Figma</desc>
<g id="Canvas" transform="translate(5205 262)">
<g id="noun_1258738_cc">
<g id="Group">
<g id="Vector">
<use xlink:href="#path0_fill" transform="translate(-5201.52 -261)" fill="#828282"/>
<mask id="mask0_outline_out">
<rect id="mask0_outline_inv" fill="white" x="-1" y="-1" width="19" height="22" transform="translate(-5201.52 -261)"/>
<use xlink:href="#path0_fill" fill="black" transform="translate(-5201.52 -261)"/>
</mask>
<g mask="url(#mask0_outline_out)">
<use xlink:href="#path1_stroke_2x" transform="translate(-5201.52 -261)" fill="#828282"/>
</g>
</g>
<g id="Vector">
<use xlink:href="#path2_fill" transform="translate(-5198.33 -249.589)" fill="#828282"/>
<mask id="mask1_outline_out">
<rect id="mask1_outline_inv" fill="white" x="-1" y="-1" width="5" height="5" transform="translate(-5198.33 -249.589)"/>
<use xlink:href="#path2_fill" fill="black" transform="translate(-5198.33 -249.589)"/>
</mask>
<g mask="url(#mask1_outline_out)">
<use xlink:href="#path3_stroke_2x" transform="translate(-5198.33 -249.589)" fill="#828282"/>
</g>
</g>
<g id="Vector">
<use xlink:href="#path4_fill" transform="translate(-5204 -256.276)" fill="#828282"/>
<mask id="mask2_outline_out">
<rect id="mask2_outline_inv" fill="white" x="-1" y="-1" width="13" height="16" transform="translate(-5204 -256.276)"/>
<use xlink:href="#path4_fill" fill="black" transform="translate(-5204 -256.276)"/>
</mask>
<g mask="url(#mask2_outline_out)">
<use xlink:href="#path5_stroke_2x" transform="translate(-5204 -256.276)" fill="#828282"/>
</g>
</g>
</g>
</g>
</g>
<defs>
<path id="path0_fill" d="M 16.7568 6.10611C 16.2563 4.9049 15.5355 3.84384 14.6146 2.92292C 13.6937 2.002 12.6126 1.28128 11.4314 0.780781C 10.1902 0.26026 8.86887 0 7.52753 0C 6.10611 0 4.72472 0.3003 3.42342 0.880881C 2.18218 1.44144 1.08108 2.24224 0.14014 3.24324C 0.0600601 3.34334 0.0400401 3.46346 0.0800801 3.58358C 0.12012 3.7037 0.24024 3.76376 0.36036 3.76376L 8.40841 3.76376C 8.94895 3.76376 9.38939 4.2042 9.38939 4.74474C 9.38939 5.28529 8.94895 5.72573 8.40841 5.72573L 2.14214 5.72573C 0.960961 5.72573 -7.63703e-08 6.68669 -7.63703e-08 7.86787C -7.63703e-08 9.04905 0.960961 10.01 2.14214 10.01L 11.6517 10.01C 12.993 10.01 14.0941 11.1111 14.0941 12.4525C 14.0941 13.7938 12.993 14.8949 11.6517 14.8949L 8.78879 14.8949C 8.60861 14.8949 8.46847 15.035 8.46847 15.2152C 8.46847 15.3954 8.60861 15.5355 8.78879 15.5355L 11.6517 15.5355C 13.3534 15.5355 14.7347 14.1542 14.7347 12.4525C 14.7347 10.7508 13.3333 9.38939 11.6517 9.38939L 2.14214 9.38939C 1.3013 9.38939 0.640641 8.70871 0.640641 7.88789C 0.640641 7.06707 1.32132 6.38639 2.14214 6.38639L 8.42843 6.38639C 9.30931 6.38639 10.05 5.66567 10.05 4.76476C 10.05 3.88388 9.32933 3.14314 8.42843 3.14314L 1.14114 3.14314C 1.9019 2.44244 2.74274 1.86186 3.7037 1.44144C 4.9049 0.900901 6.20621 0.620621 7.54755 0.620621C 8.80881 0.620621 10.05 0.860861 11.1912 1.36136C 12.3123 1.84184 13.3133 2.5025 14.1742 3.36336C 15.035 4.22422 15.7157 5.22523 16.1762 6.34635C 16.6567 7.50751 16.9169 8.72873 16.9169 9.98999C 16.9169 11.2513 16.6767 12.4925 16.1762 13.6336C 15.6957 14.7548 15.035 15.7558 14.1742 16.6166C 13.3133 17.4775 12.3123 18.1582 11.1912 18.6186C 10.03 19.0991 8.80881 19.3594 7.54755 19.3594C 6.18619 19.3594 4.88488 19.0791 3.64364 18.5185C 3.48348 18.4384 3.3033 18.5185 3.22322 18.6787C 3.14314 18.8388 3.22322 19.019 3.38338 19.0991C 4.68468 19.6997 6.08609 20 7.54755 20C 8.88889 20 10.2102 19.7397 11.4515 19.2192C 12.6527 18.7187 13.7137 17.998 14.6346 17.0771C 15.5556 16.1562 16.2763 15.0951 16.7768 13.8939C 17.2973 12.6527 17.5576 11.3514 17.5576 9.98999C 17.5375 8.66867 17.2773 7.34735 16.7568 6.10611Z"/>
<path id="path1_stroke_2x" d="M 16.7568 6.10611L 16.526 6.20226L 16.5262 6.20279L 16.7568 6.10611ZM 11.4314 0.780781L 11.529 0.550591L 11.5281 0.550232L 11.4314 0.780781ZM 3.42342 0.880881L 3.32156 0.652571L 3.32053 0.653038L 3.42342 0.880881ZM 0.14014 3.24324L -0.0420167 3.07202L -0.0488471 3.07928L -0.055077 3.08707L 0.14014 3.24324ZM 1.14114 3.14314L 0.971772 2.95926L 0.500696 3.39314L 1.14114 3.39314L 1.14114 3.14314ZM 3.7037 1.44144L 3.80391 1.67049L 3.80629 1.66942L 3.7037 1.44144ZM 11.1912 1.36136L 11.0908 1.59032L 11.0927 1.59115L 11.1912 1.36136ZM 16.1762 6.34635L 15.9449 6.44133L 15.9452 6.44193L 16.1762 6.34635ZM 16.1762 13.6336L 15.9472 13.5332L 15.9464 13.5352L 16.1762 13.6336ZM 11.1912 18.6186L 11.0962 18.3874L 11.0956 18.3876L 11.1912 18.6186ZM 3.64364 18.5185L 3.53175 18.7423L 3.54075 18.7464L 3.64364 18.5185ZM 3.38338 19.0991L 3.27153 19.3228L 3.27862 19.3261L 3.38338 19.0991ZM 11.4515 19.2192L 11.3553 18.9884L 11.3548 18.9887L 11.4515 19.2192ZM 16.7768 13.8939L 16.5462 13.7972L 16.546 13.7977L 16.7768 13.8939ZM 17.5576 9.98999L 17.8076 9.98999L 17.8075 9.9862L 17.5576 9.98999ZM 16.9875 6.00995C 16.4762 4.78599 15.7282 3.68451 14.7914 2.74615L 14.4378 3.0997C 15.3429 4.00318 16.0363 5.02382 16.526 6.20226L 16.9875 6.00995ZM 14.7914 2.74615C 13.8522 1.80867 12.7312 1.06122 11.529 0.550593L 11.3339 1.01097C 12.494 1.50134 13.5352 2.19534 14.4378 3.0997L 14.7914 2.74615ZM 11.5281 0.550232C 10.2631 0.0211165 8.89314 -0.248819 7.52753 -0.25L 7.52753 0.25C 8.8446 0.248819 10.1173 0.499404 11.3347 1.01133L 11.5281 0.550232ZM 7.52753 -0.25C 6.0794 -0.248569 4.64683 0.0627453 3.32156 0.652573L 3.52528 1.10919C 4.80262 0.537855 6.13281 0.248569 7.52753 0.25L 7.52753 -0.25ZM 3.32053 0.653038C 2.05656 1.2253 0.915755 2.05471 -0.0420167 3.07202L 0.322297 3.41447C 1.24641 2.42977 2.30781 1.65758 3.52632 1.10872L 3.32053 0.653038ZM -0.055077 3.08707C -0.189149 3.25466 -0.223429 3.46362 -0.157091 3.66264L 0.317251 3.50453C 0.303509 3.4633 0.309269 3.43203 0.335357 3.39942L -0.055077 3.08707ZM -0.157091 3.66264C -0.0727442 3.91568 0.169164 4.01376 0.36036 4.01376L 0.36036 3.51376C 0.340273 3.51376 0.325674 3.50846 0.318814 3.50435C 0.315875 3.50258 0.315347 3.50167 0.315929 3.50237C 0.316198 3.50269 0.316544 3.50317 0.316863 3.50374C 0.317189 3.50432 0.317292 3.50465 0.317251 3.50453L -0.157091 3.66264ZM 0.36036 4.01376L 8.40841 4.01376L 8.40841 3.51376L 0.36036 3.51376L 0.36036 4.01376ZM 8.40841 4.01376C 8.81088 4.01376 9.13939 4.34228 9.13939 4.74474L 9.63939 4.74474C 9.63939 4.06613 9.08702 3.51376 8.40841 3.51376L 8.40841 4.01376ZM 9.13939 4.74474C 9.13939 5.14721 8.81088 5.47573 8.40841 5.47573L 8.40841 5.97573C 9.08702 5.97573 9.63939 5.42336 9.63939 4.74474L 9.13939 4.74474ZM 8.40841 5.47573L 2.14214 5.47573L 2.14214 5.97573L 8.40841 5.97573L 8.40841 5.47573ZM 2.14214 5.47573C 0.82289 5.47573 -0.25 6.54861 -0.25 7.86787L 0.25 7.86787C 0.25 6.82476 1.09903 5.97573 2.14214 5.97573L 2.14214 5.47573ZM -0.25 7.86787C -0.25 9.18712 0.82289 10.26 2.14214 10.26L 2.14214 9.76001C 1.09903 9.76001 0.25 8.91098 0.25 7.86787L -0.25 7.86787ZM 2.14214 10.26L 11.6517 10.26L 11.6517 9.76001L 2.14214 9.76001L 2.14214 10.26ZM 11.6517 10.26C 12.8549 10.26 13.8441 11.2492 13.8441 12.4525L 14.3441 12.4525C 14.3441 10.973 13.1311 9.76001 11.6517 9.76001L 11.6517 10.26ZM 13.8441 12.4525C 13.8441 13.6557 12.8549 14.6449 11.6517 14.6449L 11.6517 15.1449C 13.1311 15.1449 14.3441 13.9319 14.3441 12.4525L 13.8441 12.4525ZM 11.6517 14.6449L 8.78879 14.6449L 8.78879 15.1449L 11.6517 15.1449L 11.6517 14.6449ZM 8.78879 14.6449C 8.47054 14.6449 8.21847 14.897 8.21847 15.2152L 8.71847 15.2152C 8.71847 15.1916 8.72707 15.175 8.73784 15.1643C 8.7486 15.1535 8.76513 15.1449 8.78879 15.1449L 8.78879 14.6449ZM 8.21847 15.2152C 8.21847 15.5335 8.47054 15.7855 8.78879 15.7855L 8.78879 15.2855C 8.76513 15.2855 8.7486 15.2769 8.73784 15.2662C 8.72707 15.2554 8.71847 15.2389 8.71847 15.2152L 8.21847 15.2152ZM 8.78879 15.7855L 11.6517 15.7855L 11.6517 15.2855L 8.78879 15.2855L 8.78879 15.7855ZM 11.6517 15.7855C 13.4914 15.7855 14.9847 14.2922 14.9847 12.4525L 14.4847 12.4525C 14.4847 14.0161 13.2153 15.2855 11.6517 15.2855L 11.6517 15.7855ZM 14.9847 12.4525C 14.9847 10.6095 13.4682 9.13939 11.6517 9.13939L 11.6517 9.63939C 13.1984 9.63939 14.4847 10.892 14.4847 12.4525L 14.9847 12.4525ZM 11.6517 9.13939L 2.14214 9.13939L 2.14214 9.63939L 11.6517 9.63939L 11.6517 9.13939ZM 2.14214 9.13939C 1.44154 9.13939 0.890641 8.57281 0.890641 7.88789L 0.390641 7.88789C 0.390641 8.8446 1.16106 9.63939 2.14214 9.63939L 2.14214 9.13939ZM 0.890641 7.88789C 0.890641 7.20514 1.45939 6.63639 2.14214 6.63639L 2.14214 6.13639C 1.18325 6.13639 0.390641 6.929 0.390641 7.88789L 0.890641 7.88789ZM 2.14214 6.63639L 8.42843 6.63639L 8.42843 6.13639L 2.14214 6.13639L 2.14214 6.63639ZM 8.42843 6.63639C 9.44537 6.63639 10.3 5.80574 10.3 4.76476L 9.80005 4.76476C 9.80005 5.52559 9.17325 6.13639 8.42843 6.13639L 8.42843 6.63639ZM 10.3 4.76476C 10.3 3.74782 9.4694 2.89314 8.42843 2.89314L 8.42843 3.39314C 9.18926 3.39314 9.80005 4.01994 9.80005 4.76476L 10.3 4.76476ZM 8.42843 2.89314L 1.14114 2.89314L 1.14114 3.39314L 8.42843 3.39314L 8.42843 2.89314ZM 1.31051 3.32703C 2.05799 2.63773 2.86443 2.08025 3.80391 1.67048L 3.6035 1.2124C 2.62106 1.64348 1.74581 2.24716 0.971772 2.95926L 1.31051 3.32703ZM 3.80629 1.66942C 4.98295 1.13841 6.23267 0.869215 7.54755 0.870621L 7.54755 0.370621C 6.17974 0.372026 4.82686 0.663396 3.60111 1.21346L 3.80629 1.66942ZM 7.54755 0.870621C 8.78495 0.869479 9.97563 1.09953 11.0908 1.59031L 11.2916 1.13241C 10.1245 0.622194 8.83267 0.371762 7.54755 0.370621L 7.54755 0.870621ZM 11.0927 1.59115C 12.1937 2.06194 13.1553 2.6962 13.9974 3.54014L 14.3509 3.18659C 13.4714 2.3088 12.4309 1.62175 11.2897 1.13158L 11.0927 1.59115ZM 13.9974 3.54014C 14.8424 4.38361 15.4955 5.34364 15.9449 6.44133L 16.4074 6.25137C 15.9359 5.10681 15.2276 4.06484 14.3509 3.18659L 13.9974 3.54014ZM 15.9452 6.44193C 16.4179 7.58166 16.6683 8.75493 16.6669 9.98999L 17.1669 9.98999C 17.1655 8.70253 16.8954 7.43335 16.4072 6.25076L 15.9452 6.44193ZM 16.6669 9.98999C 16.6681 11.2274 16.438 12.4181 15.9472 13.5332L 16.4051 13.734C 16.9153 12.5669 17.1658 11.2751 17.1669 9.98999L 16.6669 9.98999ZM 15.9464 13.5352C 15.4756 14.6362 14.8413 15.5977 13.9974 16.4398L 14.3509 16.7934C 15.2287 15.9138 15.9158 14.8733 16.406 13.7321L 15.9464 13.5352ZM 13.9974 16.4398C 13.1539 17.2849 12.1939 17.938 11.0962 18.3874L 11.2862 18.8499C 12.4307 18.3783 13.4727 17.6701 14.3509 16.7934L 13.9974 16.4398ZM 11.0956 18.3876C 9.95587 18.8603 8.78261 19.1107 7.54755 19.1094L 7.54755 19.6094C 8.83501 19.608 10.1042 19.3378 11.2868 18.8496L 11.0956 18.3876ZM 7.54755 19.1094C 6.21265 19.1108 4.96309 18.8416 3.74654 18.2907L 3.54075 18.7464C 4.80668 19.3165 6.15972 19.608 7.54755 19.6094L 7.54755 19.1094ZM 3.75545 18.2949C 3.44776 18.1411 3.1287 18.3087 2.99962 18.5669L 3.44683 18.7905C 3.4611 18.7619 3.48129 18.7466 3.49625 18.7406C 3.50874 18.7356 3.51912 18.7358 3.53184 18.7421L 3.75545 18.2949ZM 2.99962 18.5669C 2.84577 18.8746 3.01341 19.1936 3.27158 19.3227L 3.49519 18.8755C 3.46664 18.8612 3.45132 18.841 3.44533 18.8261C 3.44034 18.8136 3.44047 18.8032 3.44683 18.7905L 2.99962 18.5669ZM 3.27862 19.3261C 4.60563 19.9369 6.05975 20.2486 7.54755 20.25L 7.54755 19.75C 6.11242 19.7514 4.76374 19.4625 3.48815 18.8721L 3.27862 19.3261ZM 7.54755 20.25C 8.91316 20.2488 10.2831 19.9789 11.5481 19.4498L 11.3548 18.9887C 10.1373 19.5006 8.86462 19.7512 7.54755 19.75L 7.54755 20.25ZM 11.5476 19.45C 12.7716 18.9386 13.873 18.1906 14.8114 17.2539L 14.4579 16.9003C 13.5544 17.8054 12.5337 18.4988 11.3553 18.9884L 11.5476 19.45ZM 14.8114 17.2539C 15.7482 16.3155 16.4962 15.214 17.0075 13.99L 16.546 13.7977C 16.0564 14.9762 15.3629 15.9968 14.4579 16.9003L 14.8114 17.2539ZM 17.0073 13.9906C 17.5363 12.7259 17.8063 11.376 17.8076 9.98999L 17.3076 9.98999C 17.3088 11.3267 17.0583 12.5794 16.5462 13.7972L 17.0073 13.9906ZM 17.8075 9.9862C 17.7862 8.64251 17.5164 7.27448 16.9873 6.00942L 16.5262 6.20279C 17.0381 7.42022 17.2889 8.69483 17.3076 9.99378L 17.8075 9.9862Z"/>
<path id="path2_fill" d="M 3.64364 1.82182C 3.64364 0.820821 2.82282 1.42251e-15 1.82182 1.42251e-15C 0.820821 1.42251e-15 -1.52741e-07 0.820821 -1.52741e-07 1.82182C -1.52741e-07 2.82282 0.820821 3.64364 1.82182 3.64364C 2.82282 3.64364 3.64364 2.82282 3.64364 1.82182ZM 0.640641 1.82182C 0.640641 1.16116 1.18118 0.640641 1.82182 0.640641C 2.48248 0.640641 3.003 1.18118 3.003 1.82182C 3.003 2.48248 2.46246 3.003 1.82182 3.003C 1.16116 3.02302 0.640641 2.48248 0.640641 1.82182Z"/>
<path id="path3_stroke_2x" d="M 1.82182 3.003L 1.82182 2.75289L 1.81425 2.75312L 1.82182 3.003ZM 3.89364 1.82182C 3.89364 0.682749 2.96089 -0.25 1.82182 -0.25L 1.82182 0.25C 2.68475 0.25 3.39364 0.958892 3.39364 1.82182L 3.89364 1.82182ZM 1.82182 -0.25C 0.68275 -0.25 -0.25 0.682749 -0.25 1.82182L 0.25 1.82182C 0.25 0.958892 0.958892 0.25 1.82182 0.25L 1.82182 -0.25ZM -0.25 1.82182C -0.25 2.96089 0.68275 3.89364 1.82182 3.89364L 1.82182 3.39364C 0.958892 3.39364 0.25 2.68475 0.25 1.82182L -0.25 1.82182ZM 1.82182 3.89364C 2.96089 3.89364 3.89364 2.96089 3.89364 1.82182L 3.39364 1.82182C 3.39364 2.68475 2.68475 3.39364 1.82182 3.39364L 1.82182 3.89364ZM 0.890641 1.82182C 0.890641 1.30198 1.31649 0.890641 1.82182 0.890641L 1.82182 0.390641C 1.04588 0.390641 0.390641 1.02034 0.390641 1.82182L 0.890641 1.82182ZM 1.82182 0.890641C 2.34166 0.890641 2.753 1.31649 2.753 1.82182L 3.253 1.82182C 3.253 1.04587 2.6233 0.390641 1.82182 0.390641L 1.82182 0.890641ZM 2.753 1.82182C 2.753 2.34166 2.32716 2.753 1.82182 2.753L 1.82182 3.253C 2.59777 3.253 3.253 2.6233 3.253 1.82182L 2.753 1.82182ZM 1.81425 2.75312C 1.30451 2.76856 0.890641 2.3516 0.890641 1.82182L 0.390641 1.82182C 0.390641 2.61337 1.01782 3.27748 1.82939 3.25289L 1.81425 2.75312Z"/>
<path id="path4_fill" d="M 8.26827 11.2921C 9.44945 11.2921 10.4104 12.253 10.4104 13.4342C 10.4104 13.6144 10.5506 13.7545 10.7307 13.7545C 10.9109 13.7545 11.0511 13.6144 11.0511 13.4342C 11.0511 11.9127 9.80981 10.6714 8.28829 10.6714L 6.72673 10.6714C 5.52553 10.6714 4.46446 11.4522 4.1041 12.5733C 3.1031 11.7525 2.28228 10.7515 1.7017 9.61038C 0.980981 8.24902 0.620621 6.80758 0.620621 5.28606C 0.620621 3.58436 1.08108 1.9227 1.94194 0.461235C 2.02202 0.321094 1.98198 0.120894 1.84184 0.0408141C 1.7017 -0.039266 1.5015 0.000774061 1.42142 0.140914C 0.500501 1.70248 0 3.46424 0 5.28606C 0 6.88766 0.38038 8.46924 1.12112 9.89066C 1.82182 11.252 2.86286 12.4532 4.1041 13.3741C 4.1041 13.3741 4.12412 13.3741 4.12412 13.3942L 4.14414 13.3942L 4.16416 13.3942C 4.18418 13.3942 4.2042 13.4142 4.22422 13.4142L 4.24424 13.4142C 4.24424 13.4142 4.24424 13.4142 4.26426 13.4142L 4.28428 13.4142C 4.28428 13.4142 4.28428 13.4142 4.3043 13.4142L 4.32432 13.4142C 4.32432 13.4142 4.32432 13.4142 4.34434 13.4142L 4.36436 13.4142C 4.36436 13.4142 4.36436 13.4142 4.38438 13.4142L 4.4044 13.4142C 4.4044 13.4142 4.42442 13.4142 4.42442 13.3942C 4.42442 13.3942 4.44444 13.3942 4.44444 13.3741C 4.44444 13.3741 4.44444 13.3741 4.46446 13.3741C 4.46446 13.3741 4.46446 13.3741 4.48448 13.3541C 4.48448 13.3541 4.48448 13.3541 4.5045 13.3541C 4.5045 13.3541 4.52452 13.3541 4.52452 13.3341L 4.54454 13.3141C 4.56456 13.2941 4.58458 13.254 4.58458 13.214C 4.58458 13.214 4.58458 13.214 4.58458 13.194L 4.58458 13.1739C 4.72472 12.0929 5.64565 11.2921 6.70671 11.2921L 8.26827 11.2921Z"/>
<path id="path5_stroke_2x" d="M 4.1041 12.5733L 3.94558 12.7667L 4.22968 12.9996L 4.34211 12.6498L 4.1041 12.5733ZM 1.7017 9.61038L 1.92455 9.497L 1.92265 9.49341L 1.7017 9.61038ZM 1.94194 0.461235L 2.15737 0.58813L 2.159 0.585269L 1.94194 0.461235ZM 1.42142 0.140914L 1.63678 0.267922L 1.63848 0.264949L 1.42142 0.140914ZM 1.12112 9.89066L 1.34341 9.77625L 1.34282 9.77513L 1.12112 9.89066ZM 4.1041 13.3741L 3.95514 13.5749L 4.02149 13.6241L 4.10411 13.6241L 4.1041 13.3741ZM 4.12412 13.3942L 3.87412 13.3942L 3.87412 13.6442L 4.12412 13.6442L 4.12412 13.3942ZM 4.4044 13.4142L 4.40441 13.1642L 4.4044 13.1642L 4.4044 13.4142ZM 4.42442 13.3942L 4.42443 13.1442L 4.17442 13.1442L 4.17442 13.3942L 4.42442 13.3942ZM 4.44444 13.3741L 4.69444 13.3741L 4.69444 13.1241L 4.44444 13.1241L 4.44444 13.3741ZM 4.46446 13.3741L 4.70707 13.3138L 4.65989 13.1241L 4.46446 13.1241L 4.46446 13.3741ZM 4.48448 13.3541L 4.48448 13.1041L 4.38093 13.1041L 4.30771 13.1774L 4.48448 13.3541ZM 4.5045 13.3541L 4.5045 13.6041L 4.50452 13.6041L 4.5045 13.3541ZM 4.52452 13.3341L 4.34775 13.1573L 4.27452 13.2306L 4.27452 13.3341L 4.52452 13.3341ZM 4.54454 13.3141L 4.72132 13.4909L 4.72132 13.4909L 4.54454 13.3141ZM 4.58458 13.1739L 4.33666 13.1418L 4.33458 13.1578L 4.33458 13.1739L 4.58458 13.1739ZM 8.26827 11.5421C 9.31138 11.5421 10.1604 12.3911 10.1604 13.4342L 10.6604 13.4342C 10.6604 12.115 9.58752 11.0421 8.26827 11.0421L 8.26827 11.5421ZM 10.1604 13.4342C 10.1604 13.7525 10.4125 14.0045 10.7307 14.0045L 10.7307 13.5045C 10.7071 13.5045 10.6905 13.4959 10.6798 13.4852C 10.669 13.4744 10.6604 13.4579 10.6604 13.4342L 10.1604 13.4342ZM 10.7307 14.0045C 11.049 14.0045 11.3011 13.7525 11.3011 13.4342L 10.8011 13.4342C 10.8011 13.4579 10.7924 13.4744 10.7817 13.4852C 10.7709 13.4959 10.7544 13.5045 10.7307 13.5045L 10.7307 14.0045ZM 11.3011 13.4342C 11.3011 11.7746 9.94788 10.4214 8.28829 10.4214L 8.28829 10.9214C 9.67174 10.9214 10.8011 12.0508 10.8011 13.4342L 11.3011 13.4342ZM 8.28829 10.4214L 6.72673 10.4214L 6.72673 10.9214L 8.28829 10.9214L 8.28829 10.4214ZM 6.72673 10.4214C 5.41712 10.4214 4.25975 11.2722 3.8661 12.4968L 4.34211 12.6498C 4.66918 11.6323 5.63393 10.9214 6.72673 10.9214L 6.72673 10.4214ZM 4.26262 12.38C 3.27988 11.5757 2.49157 10.6148 1.92452 9.49702L 1.47888 9.72375C 2.07299 10.8883 2.92633 11.9293 3.94558 12.7667L 4.26262 12.38ZM 1.92265 9.49341C 1.21443 8.15956 0.868747 6.77704 0.870621 5.28606L 0.370621 5.28606C 0.372494 6.83813 0.747534 8.33848 1.48075 9.72736L 1.92265 9.49341ZM 0.870621 5.28606C 0.86834 3.61805 1.31122 2.02036 2.15735 0.588119L 1.72653 0.334351C 0.850945 1.82504 0.372901 3.55067 0.370621 5.28606L 0.870621 5.28606ZM 2.159 0.585269C 2.29703 0.343722 2.24357 -0.017565 1.96588 -0.176247L 1.71781 0.257875C 1.71784 0.257891 1.71944 0.258717 1.72203 0.262468C 1.72484 0.266551 1.72836 0.273564 1.73061 0.283567C 1.73561 0.305695 1.73123 0.326089 1.72488 0.3372L 2.159 0.585269ZM 1.96588 -0.176247C 1.72433 -0.314274 1.36304 -0.260814 1.20436 0.0168795L 1.63848 0.264949C 1.6385 0.264921 1.63932 0.263312 1.64308 0.260726C 1.64716 0.257911 1.65417 0.254401 1.66417 0.252142C 1.6863 0.247145 1.7067 0.251526 1.71781 0.257875L 1.96588 -0.176247ZM 1.20608 0.0139179C 0.270707 1.60401 -0.24761 3.42975 -0.25 5.28606L 0.25 5.28606C 0.24761 3.49873 0.730294 1.80094 1.63676 0.26791L 1.20608 0.0139179ZM -0.25 5.28606C -0.248261 6.9171 0.146249 8.55689 0.899419 10.0062L 1.34282 9.77513C 0.614511 8.38159 0.248261 6.85823 0.25 5.28606L -0.25 5.28606ZM 0.898837 10.0051C 1.61475 11.3921 2.69291 12.6366 3.95514 13.5749L 4.25307 13.1734C 3.03282 12.2699 2.0289 11.112 1.34341 9.77625L 0.898837 10.0051ZM 4.1041 13.3741C 4.10411 13.6241 4.10399 13.6241 4.10386 13.6241C 4.10382 13.6241 4.1037 13.6241 4.10362 13.6241C 4.1037 13.6241 4.10296 13.6241 4.10313 13.6241C 4.10329 13.6241 4.10181 13.6241 4.10214 13.6241C 4.10247 13.6241 4.09947 13.6241 4.10013 13.6241C 4.1008 13.6241 4.09463 13.624 4.096 13.624C 4.09737 13.6241 4.0842 13.6234 4.08716 13.6236C 4.08106 13.6231 4.07398 13.6224 4.06614 13.6211C 4.05164 13.6186 4.02849 13.6133 4.00231 13.6003C 3.97516 13.5867 3.9404 13.5624 3.91298 13.5213C 3.88453 13.4786 3.87412 13.4329 3.87412 13.3942L 4.37412 13.3942C 4.37412 13.2764 4.30322 13.1917 4.22591 13.153C 4.19834 13.1409 4.16001 13.13 4.14833 13.1279C 4.1393 13.1265 4.12685 13.1251 4.12277 13.1248C 4.11927 13.1246 4.11431 13.1244 4.11265 13.1243C 4.11113 13.1242 4.10893 13.1242 4.10819 13.1242C 4.10748 13.1242 4.10645 13.1242 4.1061 13.1242C 4.10576 13.1242 4.10526 13.1242 4.10509 13.1242C 4.10492 13.1241 4.10467 13.1241 4.10459 13.1241C 4.10451 13.1241 4.10439 13.1241 4.10435 13.1241C 4.10422 13.1241 4.1041 13.1241 4.1041 13.3741ZM 4.12412 13.6442L 4.14414 13.6442L 4.14414 13.1442L 4.12412 13.1442L 4.12412 13.6442ZM 4.14414 13.6442L 4.16416 13.6442L 4.16416 13.1442L 4.14414 13.1442L 4.14414 13.6442ZM 4.16416 13.6442C 4.12822 13.6442 4.10192 13.6353 4.0914 13.6314C 4.08193 13.6278 4.07502 13.6241 4.08239 13.6278C 4.08503 13.6291 4.10195 13.6378 4.12143 13.6451C 4.14196 13.6528 4.17827 13.6642 4.22422 13.6642L 4.22422 13.1642C 4.26017 13.1642 4.28646 13.173 4.29699 13.177C 4.30646 13.1805 4.31337 13.1843 4.306 13.1806C 4.30336 13.1793 4.28643 13.1705 4.26696 13.1632C 4.24642 13.1555 4.21012 13.1442 4.16416 13.1442L 4.16416 13.6442ZM 4.22422 13.6642L 4.24424 13.6642L 4.24424 13.1642L 4.22422 13.1642L 4.22422 13.6642ZM 4.24424 13.4142C 4.24424 13.1642 4.24424 13.4142 4.24424 13.6642C 4.24424 13.6642 4.24424 13.6642 4.24425 13.6642C 4.24425 13.6642 4.24425 13.6642 4.24425 13.6642C 4.24425 13.6642 4.24426 13.6642 4.24428 13.6642C 4.24432 13.6642 4.2444 13.6642 4.24456 13.6642C 4.24487 13.6642 4.2455 13.6642 4.24675 13.6642C 4.24925 13.6642 4.25425 13.6642 4.26426 13.6642L 4.26426 13.1642C 4.25425 13.1642 4.24925 13.1642 4.24675 13.1642C 4.2455 13.1642 4.24487 13.1642 4.24456 13.1642C 4.2444 13.1642 4.24432 13.1642 4.24428 13.1642C 4.24426 13.1642 4.24425 13.1642 4.24425 13.1642C 4.24425 13.1642 4.24425 13.1642 4.24425 13.1642C 4.24424 13.1642 4.24424 13.1642 4.24424 13.1642C 4.24424 13.4142 4.24424 13.6642 4.24424 13.4142ZM 4.26426 13.6642L 4.28428 13.6642L 4.28428 13.1642L 4.26426 13.1642L 4.26426 13.6642ZM 4.28428 13.4142C 4.28428 13.6642 4.28428 13.6642 4.28428 13.6642L 4.28428 13.6642C 4.28429 13.6642 4.28429 13.6642 4.28429 13.6642C 4.28429 13.6642 4.2843 13.6642 4.28432 13.6642C 4.28436 13.6642 4.28444 13.6642 4.2846 13.6642C 4.28491 13.6642 4.28554 13.6642 4.28679 13.6642C 4.28929 13.6642 4.29429 13.6642 4.3043 13.6642L 4.3043 13.1642C 4.29429 13.1642 4.28929 13.1642 4.28679 13.1642C 4.28554 13.1642 4.28491 13.1642 4.2846 13.1642C 4.28444 13.1642 4.28436 13.1642 4.28432 13.1642C 4.2843 13.1642 4.28429 13.1642 4.28429 13.1642C 4.28429 13.1642 4.28429 13.1642 4.28428 13.1642L 4.28428 13.1642C 4.28428 13.1642 4.28428 13.1642 4.28428 13.4142ZM 4.3043 13.6642L 4.32432 13.6642L 4.32432 13.1642L 4.3043 13.1642L 4.3043 13.6642ZM 4.32432 13.4142C 4.32432 13.6642 4.32432 13.6642 4.32432 13.6642C 4.32432 13.6642 4.32432 13.6642 4.32433 13.6642C 4.32433 13.6642 4.32433 13.6642 4.32433 13.6642C 4.32433 13.6642 4.32434 13.6642 4.32436 13.6642C 4.3244 13.6642 4.32448 13.6642 4.32464 13.6642C 4.32495 13.6642 4.32558 13.6642 4.32683 13.6642C 4.32933 13.6642 4.33433 13.6642 4.34434 13.6642L 4.34434 13.1642C 4.33433 13.1642 4.32933 13.1642 4.32683 13.1642C 4.32558 13.1642 4.32495 13.1642 4.32464 13.1642C 4.32448 13.1642 4.3244 13.1642 4.32436 13.1642C 4.32434 13.1642 4.32433 13.1642 4.32433 13.1642C 4.32433 13.1642 4.32433 13.1642 4.32433 13.1642C 4.32432 13.1642 4.32432 13.1642 4.32432 13.1642C 4.32432 13.1642 4.32432 13.1642 4.32432 13.4142ZM 4.34434 13.6642L 4.36436 13.6642L 4.36436 13.1642L 4.34434 13.1642L 4.34434 13.6642ZM 4.36436 13.4142C 4.36436 13.6642 4.36436 13.6642 4.36436 13.6642L 4.36436 13.6642C 4.36437 13.6642 4.36437 13.6642 4.36437 13.6642C 4.36437 13.6642 4.36438 13.6642 4.3644 13.6642C 4.36444 13.6642 4.36452 13.6642 4.36468 13.6642C 4.36499 13.6642 4.36562 13.6642 4.36687 13.6642C 4.36937 13.6642 4.37437 13.6642 4.38438 13.6642L 4.38438 13.1642C 4.37437 13.1642 4.36937 13.1642 4.36687 13.1642C 4.36562 13.1642 4.36499 13.1642 4.36468 13.1642C 4.36452 13.1642 4.36444 13.1642 4.3644 13.1642C 4.36438 13.1642 4.36437 13.1642 4.36437 13.1642C 4.36437 13.1642 4.36437 13.1642 4.36436 13.1642L 4.36436 13.1642C 4.36436 13.1642 4.36436 13.1642 4.36436 13.4142ZM 4.38438 13.6642L 4.4044 13.6642L 4.4044 13.1642L 4.38438 13.1642L 4.38438 13.6642ZM 4.4044 13.4142C 4.4044 13.6642 4.40452 13.6642 4.40465 13.6642C 4.40469 13.6642 4.40481 13.6642 4.40489 13.6642C 4.40497 13.6642 4.40522 13.6642 4.40539 13.6642C 4.40556 13.6642 4.40606 13.6642 4.4064 13.6642C 4.40675 13.6642 4.40778 13.6642 4.40849 13.6642C 4.40923 13.6641 4.41143 13.6641 4.41295 13.664C 4.41461 13.664 4.41957 13.6637 4.42307 13.6635C 4.42715 13.6632 4.4396 13.6618 4.44863 13.6605C 4.46031 13.6583 4.49865 13.6474 4.52621 13.6353C 4.60352 13.5966 4.67442 13.512 4.67442 13.3942L 4.17442 13.3942C 4.17442 13.3554 4.18483 13.3097 4.21328 13.2671C 4.2407 13.2259 4.27546 13.2017 4.30261 13.1881C 4.32879 13.175 4.35194 13.1697 4.36644 13.1673C 4.37428 13.166 4.38136 13.1652 4.38746 13.1648C 4.3845 13.165 4.39767 13.1643 4.3963 13.1643C 4.39493 13.1644 4.4011 13.1642 4.40043 13.1642C 4.39977 13.1642 4.40277 13.1642 4.40244 13.1642C 4.40211 13.1642 4.40359 13.1642 4.40343 13.1642C 4.40326 13.1642 4.404 13.1642 4.40392 13.1642C 4.404 13.1642 4.40412 13.1642 4.40416 13.1642C 4.40429 13.1642 4.40441 13.1642 4.4044 13.4142ZM 4.42442 13.3942C 4.42442 13.6442 4.42454 13.6442 4.42467 13.6442C 4.42471 13.6442 4.42483 13.6442 4.42491 13.6442C 4.42499 13.6442 4.42524 13.6442 4.42541 13.6442C 4.42558 13.6442 4.42608 13.6442 4.42642 13.6442C 4.42677 13.6442 4.4278 13.6441 4.42851 13.6441C 4.42925 13.6441 4.43145 13.6441 4.43297 13.644C 4.43463 13.644 4.43959 13.6437 4.44309 13.6435C 4.44717 13.6432 4.45962 13.6418 4.46865 13.6405C 4.48033 13.6383 4.51867 13.6274 4.54624 13.6153C 4.62354 13.5766 4.69444 13.492 4.69444 13.3741L 4.19444 13.3741C 4.19444 13.3354 4.20485 13.2897 4.2333 13.247C 4.26072 13.2059 4.29548 13.1816 4.32263 13.1681C 4.34881 13.155 4.37196 13.1497 4.38646 13.1473C 4.3943 13.1459 4.40138 13.1452 4.40748 13.1448C 4.40452 13.145 4.41769 13.1443 4.41632 13.1443C 4.41495 13.1443 4.42112 13.1442 4.42045 13.1442C 4.41979 13.1442 4.42279 13.1442 4.42246 13.1442C 4.42213 13.1442 4.42361 13.1442 4.42345 13.1442C 4.42328 13.1442 4.42402 13.1442 4.42394 13.1442C 4.42402 13.1442 4.42414 13.1442 4.42418 13.1442C 4.42431 13.1442 4.42443 13.1442 4.42442 13.3942ZM 4.44444 13.3741C 4.44444 13.1241 4.44444 13.3741 4.44444 13.6241C 4.44444 13.6241 4.44444 13.6241 4.44445 13.6241C 4.44445 13.6241 4.44445 13.6241 4.44445 13.6241C 4.44445 13.6241 4.44446 13.6241 4.44448 13.6241C 4.44452 13.6241 4.4446 13.6241 4.44476 13.6241C 4.44507 13.6241 4.4457 13.6241 4.44695 13.6241C 4.44945 13.6241 4.45445 13.6241 4.46446 13.6241L 4.46446 13.1241C 4.45445 13.1241 4.44945 13.1241 4.44695 13.1241C 4.4457 13.1241 4.44507 13.1241 4.44476 13.1241C 4.4446 13.1241 4.44452 13.1241 4.44448 13.1241C 4.44446 13.1241 4.44445 13.1241 4.44445 13.1241C 4.44445 13.1241 4.44445 13.1241 4.44445 13.1241C 4.44444 13.1241 4.44444 13.1241 4.44444 13.1241C 4.44444 13.3741 4.44444 13.6241 4.44444 13.3741ZM 4.46446 13.3741C 4.22189 13.4346 4.39646 13.6147 4.6395 13.5526C 4.63972 13.5524 4.64016 13.552 4.64038 13.5518C 4.64049 13.5517 4.6407 13.5515 4.64081 13.5514C 4.64087 13.5513 4.64097 13.5512 4.64103 13.5511C 4.64106 13.5511 4.64111 13.5511 4.64114 13.551C 4.64115 13.551 4.64118 13.551 4.6412 13.551C 4.64121 13.551 4.64123 13.5509 4.64126 13.5509C 4.6413 13.5509 4.64138 13.5508 4.64154 13.5506C 4.64186 13.5503 4.64249 13.5497 4.64374 13.5484C 4.64624 13.5459 4.65125 13.5409 4.66126 13.5309L 4.30771 13.1774C 4.2977 13.1874 4.2927 13.1924 4.29019 13.1949C 4.28894 13.1961 4.28832 13.1967 4.28801 13.197C 4.28786 13.1972 4.28779 13.1973 4.28775 13.1973C 4.28774 13.1973 4.28774 13.1973 4.28774 13.1973C 4.28773 13.1973 4.28781 13.1973 4.28779 13.1973C 4.28777 13.1973 4.28793 13.1971 4.2879 13.1972C 4.28785 13.1972 4.28817 13.1969 4.28812 13.1969C 4.28801 13.1971 4.28866 13.1964 4.28855 13.1965C 4.28877 13.1963 4.28921 13.1959 4.28943 13.1956C 4.53246 13.1336 4.70704 13.3137 4.46446 13.3741ZM 4.48448 13.3541C 4.48448 13.6041 4.48448 13.6041 4.48448 13.6041C 4.48448 13.6041 4.48448 13.6041 4.48448 13.6041C 4.48448 13.6041 4.48448 13.6041 4.48449 13.6041C 4.48449 13.6041 4.48449 13.6041 4.48449 13.6041C 4.48449 13.6041 4.4845 13.6041 4.48452 13.6041C 4.48456 13.6041 4.48464 13.6041 4.4848 13.6041C 4.48511 13.6041 4.48574 13.6041 4.48699 13.6041C 4.48949 13.6041 4.49449 13.6041 4.5045 13.6041L 4.5045 13.1041C 4.49449 13.1041 4.48949 13.1041 4.48699 13.1041C 4.48574 13.1041 4.48511 13.1041 4.4848 13.1041C 4.48464 13.1041 4.48456 13.1041 4.48452 13.1041C 4.4845 13.1041 4.48449 13.1041 4.48449 13.1041C 4.48449 13.1041 4.48449 13.1041 4.48449 13.1041C 4.48448 13.1041 4.48448 13.1041 4.48448 13.1041C 4.48448 13.1041 4.48448 13.1041 4.48448 13.1041C 4.48448 13.1041 4.48448 13.1041 4.48448 13.3541ZM 4.5045 13.3541C 4.50452 13.6041 4.50464 13.6041 4.50476 13.6041C 4.50481 13.6041 4.50493 13.6041 4.50501 13.6041C 4.50509 13.6041 4.50534 13.6041 4.50551 13.6041C 4.50568 13.6041 4.50618 13.6041 4.50652 13.6041C 4.50687 13.6041 4.5079 13.6041 4.50861 13.6041C 4.50935 13.6041 4.51155 13.604 4.51307 13.604C 4.51473 13.6039 4.51969 13.6037 4.52319 13.6035C 4.52727 13.6031 4.53971 13.6018 4.54875 13.6004C 4.56043 13.5983 4.59876 13.5873 4.62633 13.5752C 4.70362 13.5366 4.77452 13.4519 4.77452 13.3341L 4.27452 13.3341C 4.27452 13.2954 4.28493 13.2497 4.31338 13.207C 4.34079 13.1659 4.37555 13.1416 4.4027 13.128C 4.42887 13.1149 4.45202 13.1096 4.46652 13.1072C 4.47436 13.1059 4.48144 13.1052 4.48754 13.1047C 4.48458 13.1049 4.49775 13.1042 4.49639 13.1043C 4.49501 13.1043 4.50118 13.1041 4.50051 13.1042C 4.49985 13.1042 4.50285 13.1041 4.50252 13.1041C 4.50219 13.1041 4.50367 13.1041 4.50351 13.1041C 4.50335 13.1041 4.50408 13.1041 4.504 13.1041C 4.50408 13.1041 4.5042 13.1041 4.50424 13.1041C 4.50437 13.1041 4.50449 13.1041 4.5045 13.3541ZM 4.7013 13.5109L 4.72132 13.4909L 4.36777 13.1373L 4.34775 13.1573L 4.7013 13.5109ZM 4.72132 13.4909C 4.78507 13.4271 4.83458 13.3247 4.83458 13.214L 4.33458 13.214C 4.33458 13.1938 4.33921 13.1802 4.34229 13.1731C 4.3449 13.167 4.35134 13.1537 4.36777 13.1373L 4.72132 13.4909ZM 4.58458 13.214C 4.33458 13.214 4.58458 13.214 4.83458 13.214C 4.83458 13.214 4.83458 13.214 4.83458 13.214C 4.83458 13.214 4.83458 13.214 4.83458 13.214C 4.83458 13.214 4.83458 13.214 4.83458 13.2139C 4.83458 13.2139 4.83458 13.2138 4.83458 13.2137C 4.83458 13.2134 4.83458 13.2127 4.83458 13.2115C 4.83458 13.209 4.83458 13.204 4.83458 13.194L 4.33458 13.194C 4.33458 13.204 4.33458 13.209 4.33458 13.2115C 4.33458 13.2127 4.33458 13.2134 4.33458 13.2137C 4.33458 13.2138 4.33458 13.2139 4.33458 13.2139C 4.33458 13.214 4.33458 13.214 4.33458 13.214C 4.33458 13.214 4.33458 13.214 4.33458 13.214C 4.33458 13.214 4.33458 13.214 4.33458 13.214C 4.58458 13.214 4.83458 13.214 4.58458 13.214ZM 4.83458 13.194L 4.83458 13.1739L 4.33458 13.1739L 4.33458 13.194L 4.83458 13.194ZM 4.83251 13.2061C 4.95659 12.2489 5.772 11.5421 6.70671 11.5421L 6.70671 11.0421C 5.51929 11.0421 4.49286 11.9368 4.33666 13.1418L 4.83251 13.2061ZM 6.70671 11.5421L 8.26827 11.5421L 8.26827 11.0421L 6.70671 11.0421L 6.70671 11.5421Z"/>
</defs>
</svg>
