<svg width="21" height="30" viewBox="0 0 21 30" version="1.1" xmlns="http://www.w3.org/2000/svg" xmlns:xlink="http://www.w3.org/1999/xlink">
<title>noun_1161822_cc</title>
<desc>Created using Figma</desc>
<g id="Canvas" transform="translate(3030 -3932)">
<g id="noun_1161822_cc">
<g id="Group">
<g id="Group">
<g id="Group">
<g id="Vector">
<use xlink:href="#path0_fill" transform="translate(-3030 3932)"/>
</g>
<g id="Vector">
<use xlink:href="#path1_fill" transform="translate(-3025.43 3936.8)"/>
</g>
</g>
</g>
</g>
</g>
</g>
<defs>
<path id="path0_fill" d="M 10.1273 0C 4.543 0 1.01725e-08 4.54433 1.01725e-08 10.1303C 1.01725e-08 12.093 0.561334 13.9933 1.621 15.6213L 9.82 29.8223C 9.883 29.932 10.0007 30 10.1273 30C 10.254 30 10.3717 29.932 10.4347 29.8223L 18.624 15.6373C 19.6907 13.9953 20.2547 12.091 20.2547 10.1303C 20.2547 4.54433 15.7117 0 10.1273 0ZM 19.5443 10.1303C 19.5443 11.9523 19.0177 13.727 18.019 15.266L 10.1273 28.9347L 2.226 15.2503C 1.23467 13.726 0.710667 11.9557 0.710667 10.1303C 0.710667 4.936 4.935 0.710333 10.1277 0.710333C 15.3203 0.710333 19.5443 4.936 19.5443 10.1303Z"/>
<path id="path1_fill" d="M 5.55533 -1.37329e-07C 2.49233 -1.37329e-07 -1.2207e-07 2.491 -1.2207e-07 5.553C -1.2207e-07 8.615 2.49233 11.1063 5.55533 11.1063C 8.61767 11.1063 11.109 8.61533 11.109 5.55333C 11.109 2.49133 8.61767 -1.37329e-07 5.55533 -1.37329e-07ZM 10.3987 5.553C 10.3987 8.22333 8.226 10.3957 5.55533 10.3957C 2.884 10.3957 0.710333 8.22333 0.710333 5.553C 0.710333 2.88267 2.884 0.710333 5.55533 0.710333C 8.226 0.710333 10.3987 2.88267 10.3987 5.553Z"/>
</defs>
</svg>
