<svg width="20" height="20" viewBox="0 0 20 20" version="1.1" xmlns="http://www.w3.org/2000/svg" xmlns:xlink="http://www.w3.org/1999/xlink">
<title>noun_292164_cc</title>
<desc>Created using Figma</desc>
<g id="Canvas" transform="translate(5204 404)">
<g id="noun_292164_cc">
<g id="Group">
<g id="Group">
<g id="Group">
<g id="Group">
<g id="Group">
<g id="Vector">
<use xlink:href="#path0_fill" transform="translate(-5196.35 -396.126)" fill="#FFFFFF"/>
</g>
<g id="Vector">
<use xlink:href="#path1_fill" transform="translate(-5204 -404)" fill="#FFFFFF"/>
</g>
</g>
</g>
</g>
</g>
</g>
</g>
</g>
<defs>
<path id="path0_fill" d="M 2.35135 2.38419e-07C 1.04131 2.38419e-07 0 0.9375 0 2.125C 0 3.3125 1.04131 4.25 2.35135 4.25C 3.66138 4.25 4.70269 3.3125 4.70269 2.125C 4.70269 0.9375 3.66138 2.38419e-07 2.35135 2.38419e-07ZM 2.35135 3.34375C 1.61235 3.34375 1.00772 2.8125 1.00772 2.125C 1.00772 1.4375 1.61235 0.90625 2.35135 0.90625C 3.09034 0.90625 3.69497 1.4375 3.69497 2.125C 3.69497 2.8125 3.09034 3.34375 2.35135 3.34375Z"/>
<path id="path1_fill" d="M 19.6069 5C 19.1367 4.28125 18.0954 3.40625 15.6768 3.40625C 15.2066 3.40625 14.6691 3.4375 14.1652 3.5C 13.1911 1.34375 11.7131 0 10 0C 8.28688 0 6.80889 1.34375 5.83476 3.5C 5.29731 3.4375 4.79345 3.40625 4.32318 3.40625C 1.93824 3.40625 0.863338 4.28125 0.393068 5C -0.446699 6.34375 0.0907521 8.15625 1.7031 10C 0.0907521 11.8438 -0.446699 13.6562 0.393068 15C 0.863338 15.7188 1.90465 16.5938 4.32318 16.5938C 4.79345 16.5938 5.3309 16.5625 5.83476 16.5C 6.80889 18.6562 8.28688 20 10 20C 11.7131 20 13.1911 18.6562 14.1652 16.5C 14.7027 16.5625 15.2066 16.5938 15.6768 16.5938C 18.0618 16.5938 19.1367 15.7188 19.6069 15C 20.4467 13.6562 19.9092 11.8438 18.2969 10C 19.9092 8.15625 20.4467 6.34375 19.6069 5ZM 15.6768 4.3125C 17.1212 4.3125 18.2297 4.6875 18.7336 5.4375C 19.3382 6.40625 18.9015 7.8125 17.6587 9.28125C 16.9869 8.59375 16.1471 7.9375 15.2066 7.28125C 15.0722 6.21875 14.8371 5.25 14.5347 4.375C 14.9042 4.34375 15.3073 4.3125 15.6768 4.3125ZM 12.1834 13.4062C 11.4444 13.7813 10.7054 14.125 10 14.4062C 9.2946 14.125 8.5556 13.7813 7.81661 13.4062C 7.07761 13.0312 6.4058 12.625 5.76758 12.1875C 5.6668 11.5 5.63321 10.75 5.63321 10C 5.63321 9.25 5.6668 8.5 5.76758 7.78125C 6.4058 7.375 7.07761 6.96875 7.81661 6.5625C 8.5556 6.1875 9.2946 5.84375 10 5.5625C 10.7054 5.84375 11.4444 6.1875 12.1834 6.5625C 12.9224 6.9375 13.5942 7.34375 14.2324 7.78125C 14.3332 8.5 14.3668 9.21875 14.3668 10C 14.3668 10.7812 14.3332 11.5 14.2324 12.2188C 13.5942 12.625 12.9224 13.0312 12.1834 13.4062ZM 14.0309 13.4375C 13.8965 14.1562 13.695 14.8438 13.4934 15.4688C 12.788 15.3438 12.049 15.125 11.2764 14.875C 11.7467 14.6562 12.217 14.4375 12.6873 14.1875C 13.1575 13.9688 13.5942 13.6875 14.0309 13.4375ZM 8.72355 14.875C 7.95097 15.125 7.21197 15.3125 6.50657 15.4688C 6.27144 14.8438 6.10348 14.1875 5.96912 13.4375C 6.4058 13.6875 6.84248 13.9375 7.31275 14.1875C 7.78302 14.4375 8.25329 14.6562 8.72355 14.875ZM 4.69267 11.4375C 4.05445 10.9688 3.517 10.4688 3.04673 10C 3.517 9.53125 4.08804 9.03125 4.69267 8.5625C 4.65908 9.03125 4.62549 9.5 4.62549 10C 4.62549 10.5 4.65908 10.9688 4.69267 11.4375ZM 5.96912 6.5625C 6.10348 5.84375 6.30503 5.15625 6.50657 4.53125C 7.21197 4.65625 7.95097 4.875 8.72355 5.125C 8.25329 5.34375 7.78302 5.5625 7.31275 5.8125C 6.84248 6.03125 6.4058 6.3125 5.96912 6.5625ZM 11.2764 5.125C 12.049 4.875 12.788 4.6875 13.4934 4.53125C 13.7286 5.15625 13.8965 5.8125 14.0309 6.5625C 13.5942 6.3125 13.1575 6.0625 12.6873 5.8125C 12.217 5.5625 11.7467 5.34375 11.2764 5.125ZM 15.3073 8.5625C 15.9455 9.03125 16.483 9.53125 16.9533 10C 16.483 10.4688 15.912 10.9688 15.3073 11.4375C 15.3409 10.9688 15.3745 10.5 15.3745 10C 15.3745 9.5 15.3409 9.03125 15.3073 8.5625ZM 10 0.90625C 11.2429 0.90625 12.3513 1.96875 13.1239 3.6875C 12.1162 3.875 11.0749 4.1875 10 4.59375C 8.9251 4.1875 7.88379 3.875 6.87607 3.6875C 7.64865 1.96875 8.75714 0.90625 10 0.90625ZM 1.26643 5.46875C 1.77029 4.6875 2.84519 4.34375 4.32318 4.34375C 4.69267 4.34375 5.09576 4.375 5.49885 4.40625C 5.19653 5.28125 4.9614 6.25 4.79345 7.3125C 3.85291 7.96875 3.04673 8.625 2.34133 9.3125C 1.13206 7.8125 0.661794 6.40625 1.26643 5.46875ZM 4.32318 15.6875C 2.87878 15.6875 1.77029 15.3125 1.26643 14.5625C 0.661794 13.5938 1.13206 12.1875 2.37492 10.7188C 3.04673 11.4062 3.8865 12.0625 4.82704 12.7188C 4.9614 13.7812 5.19653 14.75 5.53244 15.625C 5.09576 15.6562 4.69267 15.6875 4.32318 15.6875ZM 10 19.0938C 8.75714 19.0938 7.64865 18.0312 6.87607 16.3125C 7.88379 16.125 8.9251 15.8125 10 15.4062C 11.0749 15.8125 12.1162 16.125 13.1239 16.3125C 12.3513 18.0312 11.2429 19.0938 10 19.0938ZM 18.7336 14.5312C 18.2297 15.3125 17.1548 15.6562 15.6768 15.6562C 15.3073 15.6562 14.9042 15.625 14.5012 15.5938C 14.8035 14.7188 15.0386 13.75 15.173 12.6875C 16.1135 12.0312 16.9197 11.375 17.6251 10.6875C 18.8679 12.1875 19.3382 13.5938 18.7336 14.5312Z"/>
</defs>
</svg>
