<svg width="19" height="20" viewBox="0 0 19 20" version="1.1" xmlns="http://www.w3.org/2000/svg" xmlns:xlink="http://www.w3.org/1999/xlink">
<title>noun_1454582_cc</title>
<desc>Created using Figma</desc>
<g id="Canvas" transform="translate(5203 333)">
<g id="noun_1454582_cc">
<g id="Group">
<g id="Vector">
<use xlink:href="#path0_fill" transform="translate(-5200.22 -329.079)" fill="#828282"/>
</g>
<g id="Vector">
<use xlink:href="#path1_fill" transform="translate(-5203 -333)" fill="#828282"/>
</g>
</g>
</g>
</g>
<defs>
<path id="path0_fill" d="M 6.39094 8.14403e-07C 4.32693 8.14403e-07 2.69515 0.665876 1.60929 1.88119C 0.523439 3.0965 3.14903e-06 4.81942 -1.08578e-07 6.86601C -3.80054e-06 8.9968 1.12093 10.5654 1.51343 12.0303C 1.75237 12.922 2.53333 13.8562 3.45358 14.6465C 4.37383 15.4368 5.41293 16.0789 6.39094 16.0789C 7.34457 16.0789 8.37698 15.4715 9.29947 14.6957C 10.222 13.92 11.016 12.9726 11.2685 12.0303C 11.661 10.5654 12.7819 8.9968 12.7819 6.86601C 12.7819 4.81942 12.2589 3.0965 11.173 1.88119C 10.0872 0.665876 8.45496 8.14403e-07 6.39094 8.14403e-07ZM 6.39094 0.868698C 8.27251 0.868698 9.61879 1.44605 10.5249 2.46018C 11.431 3.4743 11.9132 4.96702 11.9132 6.86601C 11.9132 8.68081 10.8817 10.1175 10.4295 11.8055C 10.266 12.4154 9.57229 13.3315 8.74041 14.0311C 7.90854 14.7306 6.91983 15.2103 6.39094 15.2103C 5.85143 15.2103 4.85305 14.7033 4.01942 13.9874C 3.18579 13.2715 2.49634 12.3425 2.35244 11.8055C 1.90016 10.1175 0.868694 8.68081 0.868697 6.86601C 0.8687 4.96702 1.3509 3.4743 2.257 2.46018C 3.1631 1.44605 4.50938 0.868698 6.39094 0.868698Z"/>
<path id="path1_fill" d="M 9.13865 -3.43576e-06C 4.61021 -3.43576e-06 0.419778 4.42459 0.419778 8.80446C -0.855205 13.5628 0.963613 17.4268 3.33072 16.7925C 8.55665 18.1928 1.80743 14.7123 3.31068 10.4472C 2.3246 7.4753 5.32928 12.6286 8.9623 6.33597C 11.1988 2.46229 16.1614 8.02875 15.3148 10.3071C 15.9913 16.0193 9.01226 18.2219 14.8173 16.6664C 17.1719 16.8094 19.0551 13.2591 18.4023 8.80446C 18.4023 4.27602 13.6671 -3.43576e-06 9.13865 -3.43576e-06Z"/>
</defs>
</svg>
